<svg width="66" height="65" viewBox="0 0 66 65" fill="none" xmlns="http://www.w3.org/2000/svg">
<path fill-rule="evenodd" clip-rule="evenodd" d="M65.2695 32.5C65.2695 40.3582 62.4806 47.565 57.8385 53.1846C57.5652 52.1877 57.2697 51.1746 56.9583 50.1607C55.6139 45.7822 53.9387 41.2733 52.4039 37.8666L52.5434 37.794C52.0926 36.9286 51.6339 36.1012 51.1681 35.3104C51.1219 35.2227 51.076 35.1364 51.0305 35.0518L51.0186 35.0582C46.1619 26.9211 40.5506 22.7281 35.1997 20.9906C29.4465 19.1225 24.2255 20.1733 21.0094 21.8565C14.7026 23.7489 10.8307 29.0019 8.54153 34.3852C6.40807 39.4023 5.50858 44.8368 5.30756 48.6821L5.28127 48.6813C5.27197 48.9926 5.26803 49.3231 5.27008 49.6709C5.27007 49.6714 5.27006 49.6719 5.27005 49.6724H5.27009C5.2704 49.725 5.27085 49.7781 5.27144 49.8315C2.10313 44.8151 0.269531 38.8717 0.269531 32.5C0.269531 14.5507 14.8203 0 32.7695 0C50.7188 0 65.2695 14.5507 65.2695 32.5ZM9.27037 49.7063C9.28296 51.2731 9.43481 53.2803 9.8056 55.498C15.6856 61.3693 23.8036 65 32.7695 65C41.1665 65 48.8198 61.8155 54.5874 56.5883C54.1854 54.9246 53.6899 53.1436 53.1345 51.3348C51.4659 45.9004 49.3144 40.4006 47.6703 37.2532C43.1869 29.6767 38.2423 26.1842 33.9644 24.7951C29.2119 23.252 25.03 24.2176 22.7272 25.4737L22.5324 25.5799L22.319 25.6409C17.5504 27.0034 14.3163 31.0269 12.2225 35.9505C10.1495 40.8255 9.35657 46.2327 9.27037 49.7063ZM21.2695 37.5C21.2695 39.433 19.7025 41 17.7695 41C15.8365 41 14.2695 39.433 14.2695 37.5C14.2695 35.567 15.8365 34 17.7695 34C19.7025 34 21.2695 35.567 21.2695 37.5ZM28.7695 40C30.7025 40 32.2695 38.433 32.2695 36.5C32.2695 34.567 30.7025 33 28.7695 33C26.8365 33 25.2695 34.567 25.2695 36.5C25.2695 38.433 26.8365 40 28.7695 40Z" fill="#64B1DC"/>
</svg>
