<svg width="154" height="101" viewBox="0 0 154 101" fill="none" xmlns="http://www.w3.org/2000/svg">
<path d="M33.4123 7.79234C33.7469 2.0255 37.0567 2.68432 39.4445 5.41105C41.5019 7.76052 45.4351 20.1611 48.3397 29.915L54.568 48.6541L53.652 49.3785L44.6916 32.9763C39.0445 23.3935 33.2237 12.2538 33.4123 7.79234Z" fill="white" stroke="white"/>
<path d="M57.894 48.436C57.9463 48.9534 57.6979 49.6185 57.1192 50.3134C56.5451 51.0029 55.6927 51.6562 54.696 52.0771C53.6993 52.4979 52.79 52.5884 52.1291 52.4204C51.463 52.251 51.1059 51.8416 51.0535 51.3242C51.0012 50.8068 51.2496 50.1417 51.8283 49.4467C52.4024 48.7573 53.2548 48.1039 54.2515 47.6831C55.2482 47.2623 56.1575 47.1718 56.8184 47.3398C57.4845 47.5091 57.8416 47.9186 57.894 48.436Z" fill="white" stroke="white"/>
<path d="M54.6152 5.14844L59.6152 12.1484" stroke="white" stroke-width="2" stroke-linecap="round" stroke-linejoin="round"/>
<path d="M57.6152 5.14844L53.6152 8.14844" stroke="white" stroke-width="2" stroke-linecap="round" stroke-linejoin="round"/>
<path d="M96.6152 3.14844L90.6152 11.1484" stroke="white" stroke-width="2" stroke-linecap="round" stroke-linejoin="round"/>
<path d="M93.6152 3.14844L97.6152 6.14844" stroke="white" stroke-width="2" stroke-linecap="round" stroke-linejoin="round"/>
<path d="M54.6152 5.14844L59.6152 12.1484" stroke="white" stroke-width="2" stroke-linecap="round" stroke-linejoin="round"/>
<path d="M57.6152 5.14844L53.6152 8.14844" stroke="white" stroke-width="2" stroke-linecap="round" stroke-linejoin="round"/>
<path d="M55.6261 32.3895C55.4527 38.1927 57.291 51.5401 66.032 58.504C68.6335 60.8936 74.2527 63.8293 75.9177 56.4558C76.7774 52.6484 79.4557 51.1305 83.2019 54.4076C85.5432 56.4558 90.1152 58.504 91.5266 51.8473C93.1152 48.263 95.1152 48.263 98.8108 50.3112C101.065 51.8473 105.087 53.5883 105.92 48.263C106.752 42.9376 101.115 26.1484 97.6152 19.6484" stroke="white" stroke-width="4" stroke-linejoin="round"/>
<path d="M48.6152 28.6484C48.6152 30.5814 47.0482 32.1484 45.1152 32.1484C43.1822 32.1484 41.6152 30.5814 41.6152 28.6484C41.6152 26.7154 43.1822 25.1484 45.1152 25.1484C47.0482 25.1484 48.6152 26.7154 48.6152 28.6484Z" fill="#1E60CD"/>
<path d="M57.488 36.8223C57.4964 36.8127 57.5045 36.8027 57.5121 36.7925L62.401 30.2291C62.5021 30.0933 62.5277 29.9157 62.4689 29.7569C62.4102 29.5982 62.2752 29.4799 62.11 29.4427L53.5545 27.5123C53.4486 27.4884 53.3378 27.4996 53.2388 27.5443L44.7739 31.3642C43.3197 31.4476 40.8048 33.1079 39.5147 38.3037C39.4661 38.4996 39.54 38.7055 39.7022 38.8258C41.3296 40.0327 44.1543 41.371 47.386 41.4913C50.6429 41.6124 54.2878 40.4935 57.488 36.8223Z" fill="white" stroke="#1E60CD" stroke-linejoin="round"/>
<path d="M59.8077 32.0457H52.1262C51.3581 12.0547 66.2088 4.81432 73.7302 3.69302C88.709 0.233028 97.8947 14.105 100.615 21.4735L93.894 24.3569C89.6692 11.6702 78.6912 10.4208 73.7302 11.3819C61.44 14.073 59.3276 26.2791 59.8077 32.0457Z" fill="white"/>
<path d="M39.6152 38.2289C40.3834 31.6934 48.897 27.4965 52.5776 26.2151C67.5564 35.8262 90.5047 26.8558 100.587 21.4095C101.067 26.2151 89.5445 41.5928 88.1042 42.0734C86.952 42.4578 82.8233 41.2724 80.9029 40.6317C59.779 31.9817 46.4965 35.3456 39.6152 38.2289Z" fill="white"/>
<circle cx="69.1152" cy="22.6484" r="3.5" fill="white"/>
<circle cx="80.1152" cy="21.6484" r="3.5" fill="white"/>
<circle cx="85.1152" cy="34.6484" r="3.5" fill="#1E60CD"/>
<path d="M38 38.9999C41.2267 37.3905 53.552 35.341 62 36.4998" stroke="#1E60CD" stroke-width="2" stroke-linecap="round"/>
<path d="M14.651 92.089C14.742 92.271 14.794 92.479 14.794 92.687C14.794 93.415 14.196 94 13.468 94C12.961 94 12.519 93.714 12.298 93.285L10.933 90.607H7.371C6.643 90.607 6.058 90.022 6.058 89.294C6.058 88.566 6.643 87.968 7.371 87.968H9.594L7.644 84.133L3.003 93.285C2.782 93.714 2.34 94 1.82 94C1.092 94 0.507 93.415 0.507 92.687C0.507 92.479 0.559 92.271 0.65 92.089L6.422 80.727C6.617 80.233 7.085 79.895 7.644 79.895C8.203 79.895 8.684 80.233 8.879 80.727L14.651 92.089ZM26.1458 85.641C28.8888 86.213 31.5148 87.344 31.5148 90.165C31.5148 92.518 29.6948 94.481 26.4188 94.481C24.3778 94.481 22.7528 93.857 21.0758 92.765C20.7248 92.531 20.4908 92.128 20.4908 91.66C20.4908 90.932 21.0758 90.347 21.8038 90.347C22.0768 90.347 22.3108 90.425 22.5188 90.555C23.7408 91.361 24.8978 91.842 26.4188 91.842C28.2648 91.842 28.8888 91.01 28.8888 90.165C28.8758 87.669 22.2848 89.099 21.0888 85.069C20.9978 84.744 20.9458 84.393 20.9458 84.042C20.9458 84.016 20.9458 83.977 20.9458 83.951C21.0498 79.661 25.3138 79.05 28.4078 80.129C29.0318 80.337 29.6038 80.61 30.1498 80.883C30.5658 81.104 30.8648 81.546 30.8648 82.053C30.8648 82.781 30.2668 83.379 29.5388 83.379C29.3178 83.379 29.1228 83.327 28.9408 83.223V83.236C27.3678 82.417 26.5618 82.313 25.7558 82.313C24.0268 82.313 23.6108 82.911 23.5848 84.016C23.5848 84.029 23.5848 84.029 23.5848 84.042C23.5848 85.004 25.1968 85.446 26.1458 85.641ZM43.4648 85.641C46.2078 86.213 48.8338 87.344 48.8338 90.165C48.8338 92.518 47.0138 94.481 43.7378 94.481C41.6968 94.481 40.0718 93.857 38.3948 92.765C38.0438 92.531 37.8098 92.128 37.8098 91.66C37.8098 90.932 38.3948 90.347 39.1228 90.347C39.3958 90.347 39.6298 90.425 39.8378 90.555C41.0598 91.361 42.2168 91.842 43.7378 91.842C45.5838 91.842 46.2078 91.01 46.2078 90.165C46.1948 87.669 39.6038 89.099 38.4078 85.069C38.3168 84.744 38.2648 84.393 38.2648 84.042C38.2648 84.016 38.2648 83.977 38.2648 83.951C38.3688 79.661 42.6328 79.05 45.7268 80.129C46.3508 80.337 46.9228 80.61 47.4688 80.883C47.8848 81.104 48.1838 81.546 48.1838 82.053C48.1838 82.781 47.5858 83.379 46.8578 83.379C46.6368 83.379 46.4418 83.327 46.2598 83.223V83.236C44.6868 82.417 43.8808 82.313 43.0748 82.313C41.3458 82.313 40.9298 82.911 40.9038 84.016C40.9038 84.029 40.9038 84.029 40.9038 84.042C40.9038 85.004 42.5158 85.446 43.4648 85.641ZM64.4627 91.374C65.1907 91.374 65.7757 91.959 65.7757 92.687C65.7757 93.415 65.1907 94 64.4627 94H56.8187C56.5717 94 56.3507 93.935 56.1427 93.818C55.7657 93.597 55.5057 93.168 55.5057 92.687V81.221C55.5057 81.208 55.5057 81.208 55.5057 81.208C55.5057 80.48 56.0907 79.895 56.8187 79.895C56.8837 79.895 56.9487 79.895 57.0137 79.908H64.4627C65.1907 79.908 65.7757 80.493 65.7757 81.221C65.7757 81.949 65.1907 82.547 64.4627 82.547H58.1317V85.641H63.3447C64.0727 85.641 64.6577 86.226 64.6577 86.954C64.6577 87.682 64.0727 88.28 63.3447 88.28H58.1317V91.374H64.4627ZM85.8886 81.182C85.9016 81.195 85.9016 81.221 85.9016 81.247V92.713C85.8886 93.428 85.3036 94 84.5756 94C83.8606 94 83.2756 93.428 83.2626 92.713V85.147L79.8956 89.567L79.8696 89.593C79.8306 89.645 79.7916 89.684 79.7526 89.736C79.7136 89.762 79.6746 89.801 79.6356 89.84C79.2976 90.1 78.8166 90.217 78.3486 90.022C78.3096 90.009 78.2836 89.996 78.2576 89.983C78.1666 89.931 78.1016 89.905 78.0106 89.827C77.9716 89.801 77.9326 89.762 77.8936 89.723C77.8416 89.671 77.8026 89.619 77.7636 89.567L77.7506 89.554C77.7246 89.528 77.7116 89.502 77.6986 89.476C77.2956 88.969 76.5026 87.864 74.5916 85.251V92.687V92.713C74.5786 93.428 73.9936 94 73.2656 94C72.5506 94 71.9656 93.428 71.9526 92.713V92.687V81.26C71.9526 81.247 71.9526 81.247 71.9526 81.247C71.9526 80.519 72.5376 79.921 73.2656 79.921C73.7076 79.921 74.0976 80.142 74.3446 80.48V80.467L78.8426 86.59L83.5226 80.454L83.5356 80.441C83.5356 80.428 83.5486 80.415 83.5616 80.415C83.5616 80.402 83.5616 80.402 83.5616 80.402L83.5746 80.389C83.5746 80.376 83.5876 80.376 83.6006 80.363C83.6136 80.337 83.6396 80.324 83.6526 80.298C83.6656 80.285 83.6786 80.272 83.6916 80.259C83.7176 80.246 83.7306 80.233 83.7566 80.22C83.7696 80.207 83.7826 80.194 83.7956 80.181C83.8216 80.168 83.8346 80.155 83.8606 80.142C83.8736 80.129 83.8866 80.116 83.9126 80.103C83.9256 80.09 83.9516 80.077 83.9776 80.077C83.9776 80.064 83.9906 80.064 83.9906 80.064C84.0036 80.051 84.0166 80.051 84.0296 80.051C84.0426 80.038 84.0686 80.025 84.0946 80.012C84.1076 80.012 84.1336 79.999 84.1466 79.999C84.1726 79.986 84.1986 79.986 84.2246 79.973C84.2376 79.973 84.2636 79.96 84.2766 79.96C84.3026 79.96 84.3286 79.947 84.3546 79.947C84.3676 79.947 84.3936 79.934 84.4066 79.934C84.4326 79.934 84.4586 79.934 84.4846 79.934C84.4976 79.921 84.5106 79.921 84.5106 79.921C84.5366 79.921 84.5626 79.921 84.5756 79.921C84.6146 79.921 84.6666 79.921 84.7056 79.934C84.7186 79.934 84.7316 79.934 84.7316 79.934C84.7706 79.934 84.7966 79.947 84.8226 79.947C84.8356 79.947 84.8486 79.947 84.8616 79.96C84.8876 79.96 84.9136 79.973 84.9526 79.973C84.9526 79.986 84.9656 79.986 84.9786 79.986C84.9786 79.986 84.9786 79.986 84.9916 79.986C85.0176 79.999 85.0566 80.012 85.0826 80.025C85.0956 80.025 85.0956 80.025 85.0956 80.025C85.1346 80.038 85.1606 80.064 85.1996 80.077C85.2126 80.09 85.2256 80.09 85.2386 80.103C85.2516 80.116 85.2776 80.129 85.3036 80.142C85.3166 80.155 85.3296 80.155 85.3426 80.168C85.3556 80.181 85.3686 80.181 85.3816 80.194C85.3946 80.207 85.3946 80.207 85.4076 80.22C85.4076 80.22 85.4206 80.22 85.4206 80.233C85.4336 80.246 85.4466 80.246 85.4596 80.259C85.4726 80.285 85.4986 80.298 85.5116 80.311C85.5246 80.324 85.5376 80.35 85.5506 80.363C85.5766 80.376 85.5896 80.389 85.6026 80.415C85.6156 80.428 85.6286 80.441 85.6416 80.454C85.6546 80.48 85.6676 80.506 85.6806 80.519C85.6936 80.532 85.7066 80.558 85.7066 80.571C85.7196 80.597 85.7326 80.61 85.7456 80.636L85.7586 80.649C85.7586 80.662 85.7716 80.675 85.7716 80.688C85.7846 80.714 85.7976 80.74 85.7976 80.753C85.8106 80.779 85.8106 80.792 85.8236 80.805C85.8366 80.831 85.8366 80.857 85.8496 80.883C85.8496 80.909 85.8496 80.922 85.8626 80.935C85.8626 80.961 85.8756 80.987 85.8756 81.013C85.8756 81.039 85.8756 81.052 85.8886 81.078C85.8886 81.091 85.8886 81.117 85.8886 81.143C85.8886 81.156 85.8886 81.169 85.8886 81.182ZM99.7069 87.955H99.4859H99.7589C99.7459 87.955 99.7329 87.955 99.7199 87.955C99.7069 87.955 99.7069 87.955 99.7069 87.955ZM103.022 86.226C106.285 88.748 104.491 94 100.37 94H93.9869C93.9479 94 93.8959 94 93.8569 94C93.3499 93.948 92.9339 93.61 92.7649 93.155C92.7129 93.012 92.6739 92.856 92.6739 92.687V81.221C92.6739 81.208 92.6739 81.208 92.6739 81.208C92.6739 80.48 93.2589 79.895 93.9869 79.895C93.9999 79.895 93.9999 79.895 93.9999 79.895H94.0129H99.7069C102.931 79.895 104.855 83.509 103.061 86.174C103.048 86.2 103.035 86.213 103.022 86.226C102.983 86.291 102.931 86.356 102.879 86.421C102.931 86.356 102.983 86.291 103.022 86.226ZM102.84 86.46C102.801 86.512 102.762 86.564 102.723 86.603C102.762 86.564 102.801 86.512 102.84 86.46ZM100.37 85.316H100.123H100.37C100.396 85.316 100.422 85.316 100.448 85.316C100.331 85.316 100.227 85.316 100.123 85.316H100.37ZM102.372 86.954C101.709 87.539 100.877 87.89 99.9929 87.942C100.877 87.89 101.709 87.539 102.372 86.954ZM100.37 91.374C101.748 91.374 102.541 89.827 101.787 88.709C101.163 87.786 100.201 87.981 99.7589 87.955H97.3929C97.3799 87.955 97.3669 87.955 97.3539 87.955C96.6259 87.955 96.0279 87.37 96.0279 86.642C96.0279 86.642 96.0279 86.642 96.0279 86.629C96.0279 85.953 96.5479 85.394 97.2109 85.329C97.2629 85.329 97.3019 85.316 97.3539 85.316H99.4989H99.7329C101.527 85.29 101.566 82.612 99.7979 82.534L95.3129 82.547V91.374H100.37ZM102.554 86.785C102.593 86.746 102.645 86.694 102.684 86.642C102.645 86.694 102.593 86.746 102.554 86.785ZM124.278 92.089C124.369 92.271 124.421 92.479 124.421 92.687C124.421 93.415 123.823 94 123.095 94C122.588 94 122.146 93.714 121.925 93.285L120.56 90.607H116.998C116.27 90.607 115.685 90.022 115.685 89.294C115.685 88.566 116.27 87.968 116.998 87.968H119.221L117.271 84.133L112.63 93.285C112.409 93.714 111.967 94 111.447 94C110.719 94 110.134 93.415 110.134 92.687C110.134 92.479 110.186 92.271 110.277 92.089L116.049 80.727C116.244 80.233 116.712 79.895 117.271 79.895C117.83 79.895 118.311 80.233 118.506 80.727L124.278 92.089Z" fill="white"/>
<circle cx="143" cy="86" r="11" fill="white"/>
<path d="M140.864 91.86C140.864 92.472 140.408 92.988 139.82 93.06V93.072C139.808 93.072 139.796 93.072 139.784 93.072H139.772C139.496 93.108 139.232 93.12 138.98 93.12C137.924 93.12 137.072 92.82 136.448 92.208C135.452 91.248 135.452 89.928 135.476 89.58V80.736C135.476 80.064 136.016 79.524 136.688 79.524C137.36 79.524 137.9 80.064 137.9 80.736V89.7V89.736C137.888 89.868 137.924 90.264 138.14 90.468C138.368 90.672 138.848 90.744 139.484 90.66C139.544 90.648 139.592 90.648 139.652 90.648C140.324 90.648 140.864 91.188 140.864 91.86ZM151.812 91.86C151.812 92.472 151.356 92.988 150.768 93.06V93.072C150.756 93.072 150.744 93.072 150.732 93.072H150.72C150.444 93.108 150.18 93.12 149.928 93.12C148.872 93.12 148.02 92.82 147.396 92.208C146.4 91.248 146.4 89.928 146.424 89.58V80.736C146.424 80.064 146.964 79.524 147.636 79.524C148.308 79.524 148.848 80.064 148.848 80.736V89.7V89.736C148.836 89.868 148.872 90.264 149.088 90.468C149.316 90.672 149.796 90.744 150.432 90.66C150.492 90.648 150.54 90.648 150.6 90.648C151.272 90.648 151.812 91.188 151.812 91.86Z" fill="#1E60CD"/>
</svg>
