<svg width="293" height="64" viewBox="0 0 293 64" fill="none" xmlns="http://www.w3.org/2000/svg">
<path d="M1.41229 7.79234C1.74689 2.0255 5.05671 2.68432 7.44449 5.41105C9.50192 7.76052 13.4351 20.1611 16.3397 29.915L22.568 48.6541L21.652 49.3785L12.6916 32.9763C7.04446 23.3935 1.22366 12.2538 1.41229 7.79234Z" fill="white" stroke="white"/>
<path d="M25.894 48.436C25.9463 48.9534 25.6979 49.6185 25.1192 50.3134C24.5451 51.0029 23.6927 51.6562 22.696 52.0771C21.6993 52.4979 20.79 52.5884 20.1291 52.4204C19.463 52.251 19.1059 51.8416 19.0535 51.3242C19.0012 50.8068 19.2496 50.1417 19.8283 49.4467C20.4024 48.7573 21.2548 48.1039 22.2515 47.6831C23.2482 47.2623 24.1575 47.1718 24.8184 47.3398C25.4845 47.5091 25.8416 47.9186 25.894 48.436Z" fill="white" stroke="white"/>
<path d="M22.6152 5.14844L27.6152 12.1484" stroke="white" stroke-width="2" stroke-linecap="round" stroke-linejoin="round"/>
<path d="M25.6152 5.14844L21.6152 8.14844" stroke="white" stroke-width="2" stroke-linecap="round" stroke-linejoin="round"/>
<path d="M64.6152 3.14844L58.6152 11.1484" stroke="white" stroke-width="2" stroke-linecap="round" stroke-linejoin="round"/>
<path d="M61.6152 3.14844L65.6152 6.14844" stroke="white" stroke-width="2" stroke-linecap="round" stroke-linejoin="round"/>
<path d="M22.6152 5.14844L27.6152 12.1484" stroke="white" stroke-width="2" stroke-linecap="round" stroke-linejoin="round"/>
<path d="M25.6152 5.14844L21.6152 8.14844" stroke="white" stroke-width="2" stroke-linecap="round" stroke-linejoin="round"/>
<path d="M23.6261 32.3895C23.4527 38.1927 25.291 51.5401 34.032 58.504C36.6335 60.8936 42.2527 63.8293 43.9177 56.4558C44.7774 52.6484 47.4557 51.1305 51.2019 54.4076C53.5432 56.4558 58.1152 58.504 59.5266 51.8473C61.1152 48.263 63.1152 48.263 66.8108 50.3112C69.0654 51.8473 73.0872 53.5883 73.9197 48.263C74.7522 42.9376 69.1152 26.1484 65.6152 19.6484" stroke="white" stroke-width="4" stroke-linejoin="round"/>
<path d="M16.6152 28.6484C16.6152 30.5814 15.0482 32.1484 13.1152 32.1484C11.1822 32.1484 9.61523 30.5814 9.61523 28.6484C9.61523 26.7154 11.1822 25.1484 13.1152 25.1484C15.0482 25.1484 16.6152 26.7154 16.6152 28.6484Z" fill="#1E60CD"/>
<path d="M25.488 36.8223C25.4964 36.8127 25.5045 36.8027 25.5121 36.7925L30.401 30.2291C30.5021 30.0933 30.5277 29.9157 30.4689 29.7569C30.4102 29.5982 30.2752 29.4799 30.11 29.4427L21.5545 27.5123C21.4486 27.4884 21.3378 27.4996 21.2388 27.5443L12.7739 31.3642C11.3197 31.4476 8.8048 33.1079 7.51473 38.3037C7.46609 38.4996 7.54002 38.7055 7.70215 38.8258C9.32955 40.0327 12.1543 41.371 15.386 41.4913C18.6429 41.6124 22.2878 40.4935 25.488 36.8223Z" fill="white" stroke="#1E60CD" stroke-linejoin="round"/>
<path d="M27.8077 32.0457H20.1262C19.3581 12.0547 34.2088 4.81432 41.7302 3.69302C56.709 0.233028 65.8947 14.105 68.6152 21.4735L61.894 24.3569C57.6692 11.6702 46.6912 10.4208 41.7302 11.3819C29.44 14.073 27.3276 26.2791 27.8077 32.0457Z" fill="white"/>
<path d="M7.61523 38.2289C8.38338 31.6934 16.897 27.4965 20.5776 26.2151C35.5564 35.8262 58.5047 26.8558 68.5866 21.4095C69.0666 26.2151 57.5445 41.5928 56.1042 42.0734C54.952 42.4578 50.8233 41.2724 48.9029 40.6317C27.779 31.9817 14.4965 35.3456 7.61523 38.2289Z" fill="white"/>
<circle cx="37.1152" cy="22.6484" r="3.5" fill="white"/>
<circle cx="48.1152" cy="21.6484" r="3.5" fill="white"/>
<circle cx="53.1152" cy="34.6484" r="3.5" fill="#1E60CD"/>
<path d="M115.032 36.648C115.144 36.872 115.208 37.128 115.208 37.384C115.208 38.28 114.472 39 113.576 39C112.952 39 112.408 38.648 112.136 38.12L110.456 34.824H106.072C105.176 34.824 104.456 34.104 104.456 33.208C104.456 32.312 105.176 31.576 106.072 31.576H108.808L106.408 26.856L100.696 38.12C100.424 38.648 99.88 39 99.24 39C98.344 39 97.624 38.28 97.624 37.384C97.624 37.128 97.688 36.872 97.8 36.648L104.904 22.664C105.144 22.056 105.72 21.64 106.408 21.64C107.096 21.64 107.688 22.056 107.928 22.664L115.032 36.648ZM129.179 28.712C132.556 29.416 135.788 30.808 135.788 34.28C135.788 37.176 133.547 39.592 129.516 39.592C127.003 39.592 125.003 38.824 122.939 37.48C122.507 37.192 122.219 36.696 122.219 36.12C122.219 35.224 122.939 34.504 123.835 34.504C124.171 34.504 124.459 34.6 124.715 34.76C126.219 35.752 127.643 36.344 129.516 36.344C131.787 36.344 132.556 35.32 132.556 34.28C132.54 31.208 124.427 32.968 122.955 28.008C122.843 27.608 122.779 27.176 122.779 26.744C122.779 26.712 122.779 26.664 122.779 26.632C122.907 21.352 128.155 20.6 131.964 21.928C132.731 22.184 133.436 22.52 134.108 22.856C134.62 23.128 134.988 23.672 134.988 24.296C134.988 25.192 134.252 25.928 133.356 25.928C133.083 25.928 132.844 25.864 132.62 25.736V25.752C130.683 24.744 129.691 24.616 128.699 24.616C126.571 24.616 126.059 25.352 126.027 26.712C126.027 26.728 126.027 26.728 126.027 26.744C126.027 27.928 128.011 28.472 129.179 28.712ZM150.495 28.712C153.871 29.416 157.103 30.808 157.103 34.28C157.103 37.176 154.863 39.592 150.831 39.592C148.319 39.592 146.319 38.824 144.255 37.48C143.823 37.192 143.535 36.696 143.535 36.12C143.535 35.224 144.255 34.504 145.151 34.504C145.487 34.504 145.775 34.6 146.031 34.76C147.535 35.752 148.959 36.344 150.831 36.344C153.103 36.344 153.871 35.32 153.871 34.28C153.855 31.208 145.743 32.968 144.271 28.008C144.159 27.608 144.095 27.176 144.095 26.744C144.095 26.712 144.095 26.664 144.095 26.632C144.223 21.352 149.471 20.6 153.279 21.928C154.047 22.184 154.751 22.52 155.423 22.856C155.935 23.128 156.303 23.672 156.303 24.296C156.303 25.192 155.567 25.928 154.671 25.928C154.399 25.928 154.159 25.864 153.935 25.736V25.752C151.999 24.744 151.007 24.616 150.015 24.616C147.887 24.616 147.375 25.352 147.343 26.712C147.343 26.728 147.343 26.728 147.343 26.744C147.343 27.928 149.327 28.472 150.495 28.712ZM176.339 35.768C177.235 35.768 177.955 36.488 177.955 37.384C177.955 38.28 177.235 39 176.339 39H166.931C166.627 39 166.355 38.92 166.099 38.776C165.635 38.504 165.315 37.976 165.315 37.384V23.272C165.315 23.256 165.315 23.256 165.315 23.256C165.315 22.36 166.035 21.64 166.931 21.64C167.011 21.64 167.091 21.64 167.171 21.656H176.339C177.235 21.656 177.955 22.376 177.955 23.272C177.955 24.168 177.235 24.904 176.339 24.904H168.547V28.712H174.963C175.859 28.712 176.579 29.432 176.579 30.328C176.579 31.224 175.859 31.96 174.963 31.96H168.547V35.768H176.339ZM202.709 23.224C202.725 23.24 202.725 23.272 202.725 23.304V37.416C202.709 38.296 201.989 39 201.093 39C200.213 39 199.493 38.296 199.477 37.416V28.104L195.333 33.544L195.301 33.576C195.253 33.64 195.205 33.688 195.157 33.752C195.109 33.784 195.061 33.832 195.013 33.88C194.597 34.2 194.005 34.344 193.429 34.104C193.381 34.088 193.349 34.072 193.317 34.056C193.205 33.992 193.125 33.96 193.013 33.864C192.965 33.832 192.917 33.784 192.869 33.736C192.805 33.672 192.757 33.608 192.709 33.544L192.693 33.528C192.661 33.496 192.645 33.464 192.629 33.432C192.133 32.808 191.157 31.448 188.805 28.232V37.384V37.416C188.789 38.296 188.069 39 187.173 39C186.293 39 185.573 38.296 185.557 37.416V37.384V23.32C185.557 23.304 185.557 23.304 185.557 23.304C185.557 22.408 186.277 21.672 187.173 21.672C187.717 21.672 188.197 21.944 188.501 22.36V22.344L194.037 29.88L199.797 22.328L199.813 22.312C199.813 22.296 199.829 22.28 199.845 22.28C199.845 22.264 199.845 22.264 199.845 22.264L199.861 22.248C199.861 22.232 199.877 22.232 199.893 22.216C199.909 22.184 199.941 22.168 199.957 22.136C199.973 22.12 199.989 22.104 200.005 22.088C200.037 22.072 200.053 22.056 200.085 22.04C200.101 22.024 200.117 22.008 200.133 21.992C200.165 21.976 200.181 21.96 200.213 21.944C200.229 21.928 200.245 21.912 200.277 21.896C200.293 21.88 200.325 21.864 200.357 21.864C200.357 21.848 200.373 21.848 200.373 21.848C200.389 21.832 200.405 21.832 200.421 21.832C200.437 21.816 200.469 21.8 200.501 21.784C200.517 21.784 200.549 21.768 200.565 21.768C200.597 21.752 200.629 21.752 200.661 21.736C200.677 21.736 200.709 21.72 200.725 21.72C200.757 21.72 200.789 21.704 200.821 21.704C200.837 21.704 200.869 21.688 200.885 21.688C200.917 21.688 200.949 21.688 200.981 21.688C200.997 21.672 201.013 21.672 201.013 21.672C201.045 21.672 201.077 21.672 201.093 21.672C201.141 21.672 201.205 21.672 201.253 21.688C201.269 21.688 201.285 21.688 201.285 21.688C201.333 21.688 201.365 21.704 201.397 21.704C201.413 21.704 201.429 21.704 201.445 21.72C201.477 21.72 201.509 21.736 201.557 21.736C201.557 21.752 201.573 21.752 201.589 21.752C201.589 21.752 201.589 21.752 201.605 21.752C201.637 21.768 201.685 21.784 201.717 21.8C201.733 21.8 201.733 21.8 201.733 21.8C201.781 21.816 201.813 21.848 201.861 21.864C201.877 21.88 201.893 21.88 201.909 21.896C201.925 21.912 201.957 21.928 201.989 21.944C202.005 21.96 202.021 21.96 202.037 21.976C202.053 21.992 202.069 21.992 202.085 22.008C202.101 22.024 202.101 22.024 202.117 22.04C202.117 22.04 202.133 22.04 202.133 22.056C202.149 22.072 202.165 22.072 202.181 22.088C202.197 22.12 202.229 22.136 202.245 22.152C202.261 22.168 202.277 22.2 202.293 22.216C202.325 22.232 202.341 22.248 202.357 22.28C202.373 22.296 202.389 22.312 202.405 22.328C202.421 22.36 202.437 22.392 202.453 22.408C202.469 22.424 202.485 22.456 202.485 22.472C202.501 22.504 202.517 22.52 202.533 22.552L202.549 22.568C202.549 22.584 202.565 22.6 202.565 22.616C202.581 22.648 202.597 22.68 202.597 22.696C202.613 22.728 202.613 22.744 202.629 22.76C202.645 22.792 202.645 22.824 202.661 22.856C202.661 22.888 202.661 22.904 202.677 22.92C202.677 22.952 202.693 22.984 202.693 23.016C202.693 23.048 202.693 23.064 202.709 23.096C202.709 23.112 202.709 23.144 202.709 23.176C202.709 23.192 202.709 23.208 202.709 23.224ZM219.716 31.56H219.444H219.78C219.764 31.56 219.748 31.56 219.732 31.56C219.716 31.56 219.716 31.56 219.716 31.56ZM223.796 29.432C227.812 32.536 225.604 39 220.532 39H212.676C212.628 39 212.564 39 212.516 39C211.892 38.936 211.38 38.52 211.172 37.96C211.108 37.784 211.06 37.592 211.06 37.384V23.272C211.06 23.256 211.06 23.256 211.06 23.256C211.06 22.36 211.78 21.64 212.676 21.64C212.692 21.64 212.692 21.64 212.692 21.64H212.708H219.716C223.684 21.64 226.052 26.088 223.844 29.368C223.828 29.4 223.812 29.416 223.796 29.432C223.748 29.512 223.684 29.592 223.62 29.672C223.684 29.592 223.748 29.512 223.796 29.432ZM223.572 29.72C223.524 29.784 223.476 29.848 223.428 29.896C223.476 29.848 223.524 29.784 223.572 29.72ZM220.532 28.312H220.228H220.532C220.564 28.312 220.596 28.312 220.628 28.312C220.484 28.312 220.356 28.312 220.228 28.312H220.532ZM222.996 30.328C222.18 31.048 221.156 31.48 220.068 31.544C221.156 31.48 222.18 31.048 222.996 30.328ZM220.532 35.768C222.228 35.768 223.204 33.864 222.276 32.488C221.508 31.352 220.324 31.592 219.78 31.56H216.868C216.852 31.56 216.836 31.56 216.82 31.56C215.924 31.56 215.188 30.84 215.188 29.944C215.188 29.944 215.188 29.944 215.188 29.928C215.188 29.096 215.828 28.408 216.644 28.328C216.708 28.328 216.756 28.312 216.82 28.312H219.46H219.748C221.956 28.28 222.004 24.984 219.828 24.888L214.308 24.904V35.768H220.532ZM223.22 30.12C223.268 30.072 223.332 30.008 223.38 29.944C223.332 30.008 223.268 30.072 223.22 30.12ZM249.957 36.648C250.069 36.872 250.133 37.128 250.133 37.384C250.133 38.28 249.397 39 248.501 39C247.877 39 247.333 38.648 247.061 38.12L245.381 34.824H240.997C240.101 34.824 239.381 34.104 239.381 33.208C239.381 32.312 240.101 31.576 240.997 31.576H243.733L241.333 26.856L235.621 38.12C235.349 38.648 234.805 39 234.165 39C233.269 39 232.549 38.28 232.549 37.384C232.549 37.128 232.613 36.872 232.725 36.648L239.829 22.664C240.069 22.056 240.645 21.64 241.333 21.64C242.021 21.64 242.613 22.056 242.853 22.664L249.957 36.648Z" fill="white"/>
<circle cx="276.5" cy="30.5" r="16.5" fill="white"/>
<path d="M273.152 37.48C273.152 38.296 272.544 38.984 271.76 39.08V39.096C271.744 39.096 271.728 39.096 271.712 39.096H271.696C271.328 39.144 270.976 39.16 270.64 39.16C269.232 39.16 268.096 38.76 267.264 37.944C265.936 36.664 265.936 34.904 265.968 34.44V22.648C265.968 21.752 266.688 21.032 267.584 21.032C268.48 21.032 269.2 21.752 269.2 22.648V34.6V34.648C269.184 34.824 269.232 35.352 269.52 35.624C269.824 35.896 270.464 35.992 271.312 35.88C271.392 35.864 271.456 35.864 271.536 35.864C272.432 35.864 273.152 36.584 273.152 37.48ZM287.749 37.48C287.749 38.296 287.141 38.984 286.357 39.08V39.096C286.341 39.096 286.325 39.096 286.309 39.096H286.293C285.925 39.144 285.573 39.16 285.237 39.16C283.829 39.16 282.693 38.76 281.861 37.944C280.533 36.664 280.533 34.904 280.565 34.44V22.648C280.565 21.752 281.285 21.032 282.181 21.032C283.077 21.032 283.797 21.752 283.797 22.648V34.6V34.648C283.781 34.824 283.829 35.352 284.117 35.624C284.421 35.896 285.061 35.992 285.909 35.88C285.989 35.864 286.053 35.864 286.133 35.864C287.029 35.864 287.749 36.584 287.749 37.48Z" fill="#1E60CD"/>
<path d="M6 38.9999C9.22667 37.3905 21.552 35.341 30 36.4998" stroke="#1E60CD" stroke-width="2" stroke-linecap="round"/>
</svg>
