<svg width="166" height="192" viewBox="0 0 166 192" fill="none" xmlns="http://www.w3.org/2000/svg">
<path d="M161.67 96.0352C156.554 95.1616 151.37 94.7488 146.181 94.8018C140.985 94.7393 135.794 95.1522 130.674 96.0352C135.796 96.9039 140.986 97.3108 146.181 97.2511C151.369 97.3013 156.553 96.8944 161.67 96.0352Z" fill="#F87171"/>
<path d="M83.044 48.1762C83.9045 40.1764 84.31 32.134 84.2585 24.0881C84.3196 16.042 83.9141 7.99908 83.044 0C82.1681 7.99874 81.7567 16.0416 81.8119 24.0881C81.7663 32.1344 82.1776 40.1767 83.044 48.1762Z" fill="#F87171"/>
<path d="M106.894 54.6079C110.237 50.5588 113.212 46.2185 115.783 41.6388C118.459 37.1158 120.727 32.3627 122.559 27.4361C115.967 35.6291 110.683 44.7951 106.894 54.6079Z" fill="#F87171"/>
<path d="M124.32 72.1234C131.679 68.8849 138.843 65.2193 145.776 61.1454C152.767 57.1617 159.52 52.7725 166 48C158.643 51.2374 151.484 54.9091 144.561 58.9956C137.567 62.9772 130.808 67.3604 124.32 72.1234Z" fill="#F87171"/>
<path d="M35.2382 95.859C30.1208 94.9992 24.9377 94.5923 19.7489 94.6432C14.5598 94.5828 9.37581 94.9898 4.25954 95.859C9.37421 96.7428 14.559 97.1557 19.7489 97.0925C24.9385 97.1462 30.1224 96.7334 35.2382 95.859Z" fill="#F87171"/>
<path d="M41.6804 71.9824C35.1865 67.2376 28.4283 62.8664 21.4386 58.8899C14.5084 54.8171 7.35045 51.1459 0 47.8943C6.47654 52.6608 13.2298 57.0385 20.2241 61.0044C27.1588 65.0748 34.3229 68.7403 41.6804 71.9824Z" fill="#F87171"/>
<path d="M59.1763 54.5374C57.3353 49.6514 55.0739 44.9347 52.4173 40.4405C49.8704 35.8779 46.9254 31.5497 43.6166 27.5066C45.4396 32.4003 47.7018 37.1186 50.3756 41.6035C52.9225 46.1662 55.8675 50.4944 59.1763 54.5374Z" fill="#F87171"/>
<path d="M82.956 143.824C82.095 151.824 81.6895 159.866 81.7415 167.912C81.6804 175.958 82.0859 184.001 82.956 192C83.8319 184.001 84.2433 175.958 84.1881 167.912C84.2341 159.866 83.8228 151.823 82.956 143.824Z" fill="#F87171"/>
<path d="M59.0707 137.392C52.474 145.575 47.189 154.736 43.4054 164.546C46.7486 160.497 49.7233 156.157 52.2941 151.577C54.9671 147.058 57.2348 142.312 59.0707 137.392Z" fill="#F87171"/>
<path d="M41.6804 119.877C34.3237 123.107 27.1596 126.761 20.2241 130.819C13.2298 134.785 6.47654 139.163 0 143.93C7.35045 140.678 14.5084 137.007 21.4386 132.934C28.4275 128.969 35.1856 124.609 41.6804 119.877Z" fill="#F87171"/>
<path d="M124.32 120C130.809 124.757 137.568 129.134 144.561 133.11C151.492 137.183 158.65 140.854 166 144.106C159.523 139.339 152.77 134.961 145.776 130.996C138.84 126.923 131.676 123.252 124.32 120Z" fill="#F87171"/>
<path d="M106.824 137.463C108.665 142.349 110.926 147.065 113.583 151.559C116.126 156.119 119.071 160.442 122.383 164.476C120.558 159.583 118.296 154.865 115.624 150.379C113.077 145.822 110.132 141.5 106.824 137.463Z" fill="#F87171"/>
<path d="M83.0088 134.238C104.104 134.238 121.204 117.118 121.204 96C121.204 74.8818 104.104 57.7621 83.0088 57.7621C61.9141 57.7621 44.8135 74.8818 44.8135 96C44.8135 117.118 61.9141 134.238 83.0088 134.238Z" fill="#F87171"/>
</svg>
