<svg width="64" height="52" viewBox="0 0 64 52" fill="none" xmlns="http://www.w3.org/2000/svg">
<path d="M46.2188 39H4.78125C2.14061 39 0 36.8174 0 34.125V4.875C0 2.18258 2.14061 0 4.78125 0H46.2188C48.8594 0 51 2.18258 51 4.875V34.125C51 36.8174 48.8594 39 46.2188 39ZM11.1562 5.6875C8.07553 5.6875 5.57812 8.23388 5.57812 11.375C5.57812 14.5161 8.07553 17.0625 11.1562 17.0625C14.237 17.0625 16.7344 14.5161 16.7344 11.375C16.7344 8.23388 14.237 5.6875 11.1562 5.6875ZM6.375 32.5H44.625V21.125L35.9077 12.2368C35.4409 11.7608 34.6841 11.7608 34.2172 12.2368L20.7188 26L15.1889 20.3618C14.7222 19.8858 13.9653 19.8858 13.4985 20.3618L6.375 27.625V32.5Z" fill="#64B1DC"/>
<path d="M60.3125 35.5938H54.2812V29.5625C54.2812 28.1474 53.1338 27 51.7188 27H50.1562C48.7412 27 47.5938 28.1474 47.5938 29.5625V35.5938H41.5625C40.1474 35.5938 39 36.7412 39 38.1562V39.7188C39 41.1338 40.1474 42.2812 41.5625 42.2812H47.5938V48.3125C47.5938 49.7276 48.7412 50.875 50.1562 50.875H51.7188C53.1338 50.875 54.2812 49.7276 54.2812 48.3125V42.2812H60.3125C61.7276 42.2812 62.875 41.1338 62.875 39.7188V38.1562C62.875 36.7412 61.7276 35.5938 60.3125 35.5938Z" fill="#64B1DC" stroke="white" stroke-width="2"/>
</svg>
